<svg xmlns="http://www.w3.org/2000/svg" xmlns:xlink="http://www.w3.org/1999/xlink" width="860" height="948.4"><rect width="860" height="948.4" rx="5" ry="5" class="a"/><svg y="0%" x="0%"><circle cx="20" cy="20" r="6" fill="#ff5f58"/><circle cx="40" cy="20" r="6" fill="#ffbd2e"/><circle cx="60" cy="20" r="6" fill="#18c132"/></svg><svg height="868.4" viewBox="0 0 80 86.84" width="800" x="25" xmlns="http://www.w3.org/2000/svg" xmlns:xlink="http://www.w3.org/1999/xlink" y="60"><style>@keyframes r{0%{transform:translateX(0)}.3%{transform:translateX(-240px)}13.5%{transform:translateX(-560px)}18.8%{transform:translateX(-720px)}32%{transform:translateX(-880px)}32.1%{transform:translateX(-960px)}37.3%{transform:translateX(-1280px)}50.6%{transform:translateX(-1520px)}55.9%{transform:translateX(-1680px)}69.1%{transform:translateX(-1760px)}74.4%{transform:translateX(-2000px)}87.6%{transform:translateX(-2400px)}89.4%{transform:translateX(-2560px)}91.2%{transform:translateX(-2720px)}to{transform:translateX(-3440px)}}.a{fill:#282d35}.f{fill:#66c2cd;font-weight:700;white-space:pre}.g,.h{fill:#b9c0cb}.g{white-space:pre}.h{font-weight:700}.h,.i,.k{white-space:pre}.i{fill:#66c2cd}.k{font-weight:700}.k,.l{fill:#dbab79}.l,.m,.n{white-space:pre}.m{fill:#e88388;font-weight:700}.n{fill:#a8cc8c}</style><g font-family="Monaco,Consolas,Menlo,'Bitstream Vera Sans Mono','Powerline Symbols',monospace" font-size="1.67"><defs><symbol id="1"><text x="2.004" y="1.67" class="f">PaySentry</text><text x="12.024" y="1.67" class="f">Demo</text><text x="17.034" y="1.67" class="g">—</text><text x="19.038" y="1.67" class="g">AI</text><text x="22.044" y="1.67" class="g">Agent</text><text x="28.056" y="1.67" class="g">Payment</text><text x="36.072" y="1.67" class="g">Controls</text></symbol><symbol id="2"><text x="2.004" y="1.67" class="h">══════════════════════════════════════════════════</text></symbol><symbol id="3"><text x="2.004" y="1.67" class="h">Policy:</text><text x="10.02" y="1.67" class="g">Max</text><text x="14.028" y="1.67" class="g">$100/tx</text><text x="22.044" y="1.67" class="g">|</text><text x="24.048" y="1.67" class="g">Approval</text><text x="33.066" y="1.67" class="g">above</text><text x="39.078" y="1.67" class="g">$40</text><text x="43.086" y="1.67" class="g">|</text><text x="45.09" y="1.67" class="g">Daily</text><text x="51.102" y="1.67" class="g">$500</text><text x="56.112" y="1.67" class="g">|</text><text x="58.116" y="1.67" class="g">5</text><text x="60.12" y="1.67" class="g">tx/min</text></symbol><symbol id="4"><text x="2.004" y="1.67" class="h">Agent:</text><text x="10.02" y="1.67" class="g">agent-research-01</text><text x="29.058" y="1.67" class="g">|</text><text x="32.064" y="1.67" class="h">Balance:</text><text x="41.082" y="1.67" class="g">$10000.00</text></symbol><symbol id="5"><text x="2.004" y="1.67" class="g">──────────────────────────────────────────────────</text></symbol><symbol id="6"><text x="2.004" y="1.67" class="h">[1/5]</text><text x="8.016" y="1.67" class="g">Agent</text><text x="14.028" y="1.67" class="g">requests:</text><text x="24.048" y="1.67" class="h">$25.00</text><text x="31.062" y="1.67" class="g">→</text><text x="33.066" y="1.67" class="i">api.openai.com</text></symbol><symbol id="7"><text x="8.016" y="1.67" class="g">Reason:</text><text x="16.032" y="1.67" class="g">&quot;GPT-4</text><text x="23.046" y="1.67" class="g">API</text><text x="27.054" y="1.67" class="g">tokens</text><text x="34.068" y="1.67" class="g">for</text><text x="38.076" y="1.67" class="g">market</text><text x="45.09" y="1.67" class="g">research&quot;</text></symbol><symbol id="8"><text x="8.016" y="1.67" class="g">Policy</text><text x="15.03" y="1.67" class="g">check...</text></symbol><symbol id="9"><text x="8.016" y="1.67" class="g">Policy</text><text x="15.03" y="1.67" class="g">check...</text><text x="25.05" y="1.67" style="white-space:pre" fill="#a8cc8c" font-weight="700">ALLOWED</text></symbol><symbol id="10"><text x="8.016" y="1.67" class="g">Balance:</text><text x="17.034" y="1.67" class="g">$10000.00</text><text x="27.054" y="1.67" class="g">→</text><text x="29.058" y="1.67" class="h">$9975.00</text></symbol><symbol id="11"><text x="2.004" y="1.67" class="h">[2/5]</text><text x="8.016" y="1.67" class="g">Agent</text><text x="14.028" y="1.67" class="g">requests:</text><text x="24.048" y="1.67" class="h">$45.00</text><text x="31.062" y="1.67" class="g">→</text><text x="33.066" y="1.67" class="i">anthropic.com</text></symbol><symbol id="12"><text x="8.016" y="1.67" class="g">Reason:</text><text x="16.032" y="1.67" class="g">&quot;Claude</text><text x="24.048" y="1.67" class="g">API</text><text x="28.056" y="1.67" class="g">credits&quot;</text></symbol><symbol id="13"><text x="8.016" y="1.67" class="g">Policy</text><text x="15.03" y="1.67" class="g">check...</text><text x="25.05" y="1.67" class="k">REQUIRES</text><text x="34.068" y="1.67" class="k">APPROVAL</text></symbol><symbol id="14"><text x="8.016" y="1.67" class="g">Rule:</text><text x="14.028" y="1.67" class="g">&quot;Transactions</text><text x="28.056" y="1.67" class="g">above</text><text x="34.068" y="1.67" class="g">$40</text><text x="38.076" y="1.67" class="g">require</text><text x="46.092" y="1.67" class="g">human</text><text x="52.104" y="1.67" class="g">approval&quot;</text></symbol><symbol id="15"><text x="8.016" y="1.67" class="g">→</text><text x="10.02" y="1.67" class="g">Payment</text><text x="18.036" y="1.67" class="g">queued.</text><text x="26.052" y="1.67" class="g">Operator</text><text x="35.07" y="1.67" class="g">must</text><text x="40.08" y="1.67" class="g">approve.</text></symbol><symbol id="16"><text x="8.016" y="1.67" class="l">ALERT</text><text x="14.028" y="1.67" class="l">[warning]:</text><text x="25.05" y="1.67" class="g">Large</text><text x="31.062" y="1.67" class="g">transaction</text><text x="43.086" y="1.67" class="g">detected:</text><text x="53.106" y="1.67" class="g">$45</text><text x="57.114" y="1.67" class="g">USD</text><text x="61.122" y="1.67" class="g">to</text><text x="64.128" y="1.67" class="g">anthropic.com</text></symbol><symbol id="17"><text x="2.004" y="1.67" class="h">[3/5]</text><text x="8.016" y="1.67" class="g">Agent</text><text x="14.028" y="1.67" class="g">requests:</text><text x="24.048" y="1.67" class="h">$150.00</text><text x="32.064" y="1.67" class="g">→</text><text x="34.068" y="1.67" class="i">sketchy-api.xyz</text></symbol><symbol id="18"><text x="8.016" y="1.67" class="g">Reason:</text><text x="16.032" y="1.67" class="g">&quot;Premium</text><text x="25.05" y="1.67" class="g">data</text><text x="30.06" y="1.67" class="g">feed</text><text x="35.07" y="1.67" class="g">subscription&quot;</text></symbol><symbol id="19"><text x="8.016" y="1.67" class="g">Policy</text><text x="15.03" y="1.67" class="g">check...</text><text x="25.05" y="1.67" class="m">BLOCKED</text></symbol><symbol id="20"><text x="8.016" y="1.67" class="g">Rule:</text><text x="14.028" y="1.67" class="g">&quot;Block</text><text x="21.042" y="1.67" class="g">transactions</text><text x="34.068" y="1.67" class="g">above</text><text x="40.08" y="1.67" class="g">$100&quot;</text></symbol><symbol id="21"><text x="8.016" y="1.67" class="g">→</text><text x="10.02" y="1.67" class="g">Payment</text><text x="18.036" y="1.67" class="g">rejected.</text><text x="28.056" y="1.67" class="g">Agent</text><text x="34.068" y="1.67" class="g">notified.</text></symbol><symbol id="22"><text x="8.016" y="1.67" class="l">ALERT</text><text x="14.028" y="1.67" class="l">[warning]:</text><text x="25.05" y="1.67" class="g">Large</text><text x="31.062" y="1.67" class="g">transaction</text><text x="43.086" y="1.67" class="g">detected:</text><text x="53.106" y="1.67" class="g">$150</text><text x="58.116" y="1.67" class="g">USD</text><text x="62.124" y="1.67" class="g">to</text><text x="65.13" y="1.67" class="g">sketchy-api.xyz</text></symbol><symbol id="23"><text x="2.004" y="1.67" class="h">[4/5]</text><text x="8.016" y="1.67" class="g">Agent</text><text x="14.028" y="1.67" class="g">requests:</text><text x="24.048" y="1.67" class="h">$30.00</text><text x="31.062" y="1.67" class="g">→</text><text x="33.066" y="1.67" class="i">api.openai.com</text></symbol><symbol id="24"><text x="8.016" y="1.67" class="g">Reason:</text><text x="16.032" y="1.67" class="g">&quot;GPT-4</text><text x="23.046" y="1.67" class="g">embeddings</text><text x="34.068" y="1.67" class="g">for</text><text x="38.076" y="1.67" class="g">RAG</text><text x="42.084" y="1.67" class="g">pipeline&quot;</text></symbol><symbol id="25"><text x="8.016" y="1.67" class="g">Balance:</text><text x="17.034" y="1.67" class="g">$9975.00</text><text x="26.052" y="1.67" class="g">→</text><text x="28.056" y="1.67" class="h">$9945.00</text></symbol><symbol id="26"><text x="8.016" y="1.67" class="l">ALERT:</text><text x="15.03" y="1.67" class="g">repeat</text><text x="22.044" y="1.67" class="g">recipient,</text><text x="33.066" y="1.67" class="g">cumulative</text><text x="44.088" y="1.67" class="g">spend</text><text x="50.1" y="1.67" class="h">$55.00</text></symbol><symbol id="27"><text x="2.004" y="1.67" class="h">[5/5]</text><text x="8.016" y="1.67" class="g">Agent</text><text x="14.028" y="1.67" class="g">attempts:</text><text x="24.048" y="1.67" class="h">6</text><text x="26.052" y="1.67" class="h">rapid</text><text x="32.064" y="1.67" class="h">payments</text><text x="41.082" y="1.67" class="g">in</text><text x="44.088" y="1.67" class="g">10</text><text x="47.094" y="1.67" class="g">seconds</text></symbol><symbol id="28"><text x="8.016" y="1.67" class="g">Reason:</text><text x="16.032" y="1.67" class="g">&quot;Batch</text><text x="23.046" y="1.67" class="g">embedding</text><text x="33.066" y="1.67" class="g">calls</text><text x="39.078" y="1.67" class="g">to</text><text x="42.084" y="1.67" class="g">api.cohere.com&quot;</text></symbol><symbol id="29"><text x="8.016" y="1.67" class="g">#1:</text><text x="12.024" y="1.67" class="g">$5.00</text><text x="18.036" y="1.67" class="g">→</text><text x="20.04" y="1.67" class="g">api.cohere.com</text><text x="35.07" y="1.67" class="g">...</text><text x="40.08" y="1.67" class="n">ALLOWED</text></symbol><symbol id="30"><text x="8.016" y="1.67" class="g">#2:</text><text x="12.024" y="1.67" class="g">$5.00</text><text x="18.036" y="1.67" class="g">→</text><text x="20.04" y="1.67" class="g">api.cohere.com</text><text x="35.07" y="1.67" class="g">...</text><text x="40.08" y="1.67" class="n">ALLOWED</text></symbol><symbol id="31"><text x="8.016" y="1.67" class="g">#3:</text><text x="12.024" y="1.67" class="g">$5.00</text><text x="18.036" y="1.67" class="g">→</text><text x="20.04" y="1.67" class="g">api.cohere.com</text><text x="35.07" y="1.67" class="g">...</text><text x="40.08" y="1.67" class="m">BLOCKED</text><text x="48.096" y="1.67" class="g">(rate</text><text x="54.108" y="1.67" class="g">limit:</text><text x="61.122" y="1.67" class="g">5</text><text x="63.126" y="1.67" class="g">tx/min)</text></symbol><symbol id="32"><text x="2.004" y="1.67" class="h">Summary:</text></symbol><symbol id="33"><text x="5.01" y="1.67" class="n">Allowed:</text><text x="15.03" y="1.67" class="g">4</text><text x="18.036" y="1.67" class="g">($65.00)</text></symbol><symbol id="34"><text x="5.01" y="1.67" class="l">Pending:</text><text x="15.03" y="1.67" class="g">1</text><text x="18.036" y="1.67" class="g">($45.00)</text></symbol><symbol id="35"><text x="5.01" y="1.67" style="white-space:pre" fill="#e88388">Blocked:</text><text x="15.03" y="1.67" class="g">2</text><text x="18.036" y="1.67" class="g">($150.00</text><text x="27.054" y="1.67" class="g">+</text><text x="29.058" y="1.67" class="g">rate</text><text x="34.068" y="1.67" class="g">limit)</text></symbol><symbol id="36"><text x="5.01" y="1.67" class="i">Alerts:</text><text x="15.03" y="1.67" class="g">4</text><text x="18.036" y="1.67" class="g">(large</text><text x="25.05" y="1.67" class="g">tx,</text><text x="29.058" y="1.67" class="g">rate</text><text x="34.068" y="1.67" class="g">spike)</text></symbol><symbol id="37"><text x="2.004" y="1.67" class="h">Final</text><text x="8.016" y="1.67" class="h">balance:</text><text x="17.034" y="1.67" class="g">$9935.00</text></symbol><symbol id="38"><text x="2.004" y="1.67" class="h">Transactions</text><text x="15.03" y="1.67" class="h">tracked:</text><text x="24.048" y="1.67" class="g">5</text></symbol><symbol id="a"><path fill="transparent" d="M0 0h80v41H0z"/></symbol><symbol id="b"><path fill="#6f7683" d="M0 0h1.102v2.171H0z"/></symbol></defs><path class="a" d="M0 0h80v86.84H0z"/><g style="animation-duration:11.38713s;animation-iteration-count:infinite;animation-name:r;animation-timing-function:steps(1,end)"><svg width="3520"><svg><use xlink:href="#a"/><use xlink:href="#b" x="-.004"/></svg><svg x="80"><use xlink:href="#a"/><use xlink:href="#b" x="-.004" y="2.146"/></svg><svg x="160"><use xlink:href="#a"/><use xlink:href="#b" x="-.004" y="8.659"/><use xlink:href="#1" y="2.171"/><use xlink:href="#2" y="4.342"/></svg><svg x="240"><use xlink:href="#a"/><use xlink:href="#b" x="-.004" y="17.343"/><use xlink:href="#1" y="2.171"/><use xlink:href="#2" y="4.342"/><use xlink:href="#3" y="8.684"/><use xlink:href="#4" y="10.855"/><use xlink:href="#5" y="15.197"/></svg><svg x="320"><use xlink:href="#a"/><use xlink:href="#b" x="-.004" y="19.514"/><use xlink:href="#1" y="2.171"/><use xlink:href="#2" y="4.342"/><use xlink:href="#3" y="8.684"/><use xlink:href="#4" y="10.855"/><use xlink:href="#5" y="15.197"/></svg><svg x="400"><use xlink:href="#a"/><use xlink:href="#b" x="-.004" y="21.685"/><use xlink:href="#1" y="2.171"/><use xlink:href="#2" y="4.342"/><use xlink:href="#3" y="8.684"/><use xlink:href="#4" y="10.855"/><use xlink:href="#5" y="15.197"/><use xlink:href="#6" y="19.539"/></svg><svg x="480"><use xlink:href="#a"/><use xlink:href="#b" x="-.004" y="23.856"/><use xlink:href="#1" y="2.171"/><use xlink:href="#2" y="4.342"/><use xlink:href="#3" y="8.684"/><use xlink:href="#4" y="10.855"/><use xlink:href="#5" y="15.197"/><use xlink:href="#6" y="19.539"/><use xlink:href="#7" y="21.71"/></svg><svg x="560"><use xlink:href="#a"/><use xlink:href="#b" x="22.996" y="23.856"/><use xlink:href="#1" y="2.171"/><use xlink:href="#2" y="4.342"/><use xlink:href="#3" y="8.684"/><use xlink:href="#4" y="10.855"/><use xlink:href="#5" y="15.197"/><use xlink:href="#6" y="19.539"/><use xlink:href="#7" y="21.71"/><use xlink:href="#8" y="23.881"/></svg><svg x="640"><use xlink:href="#a"/><use xlink:href="#b" x="-.004" y="26.027"/><use xlink:href="#1" y="2.171"/><use xlink:href="#2" y="4.342"/><use xlink:href="#3" y="8.684"/><use xlink:href="#4" y="10.855"/><use xlink:href="#5" y="15.197"/><use xlink:href="#6" y="19.539"/><use xlink:href="#7" y="21.71"/><use xlink:href="#9" y="23.881"/></svg><svg x="720"><use xlink:href="#a"/><use xlink:href="#b" x="-.004" y="28.198"/><use xlink:href="#1" y="2.171"/><use xlink:href="#2" y="4.342"/><use xlink:href="#3" y="8.684"/><use xlink:href="#4" y="10.855"/><use xlink:href="#5" y="15.197"/><use xlink:href="#6" y="19.539"/><use xlink:href="#7" y="21.71"/><use xlink:href="#9" y="23.881"/><use xlink:href="#10" y="26.052"/></svg><svg x="800"><use xlink:href="#a"/><use xlink:href="#b" x="-.004" y="30.369"/><use xlink:href="#1" y="2.171"/><use xlink:href="#2" y="4.342"/><use xlink:href="#3" y="8.684"/><use xlink:href="#4" y="10.855"/><use xlink:href="#5" y="15.197"/><use xlink:href="#6" y="19.539"/><use xlink:href="#7" y="21.71"/><use xlink:href="#9" y="23.881"/><use xlink:href="#10" y="26.052"/></svg><svg x="880"><use xlink:href="#a"/><use xlink:href="#b" x="-.004" y="32.54"/><use xlink:href="#1" y="2.171"/><use xlink:href="#2" y="4.342"/><use xlink:href="#3" y="8.684"/><use xlink:href="#4" y="10.855"/><use xlink:href="#5" y="15.197"/><use xlink:href="#6" y="19.539"/><use xlink:href="#7" y="21.71"/><use xlink:href="#9" y="23.881"/><use xlink:href="#10" y="26.052"/><use xlink:href="#11" y="30.394"/></svg><svg x="960"><use xlink:href="#a"/><use xlink:href="#b" x="22.996" y="34.711"/><use xlink:href="#1" y="2.171"/><use xlink:href="#2" y="4.342"/><use xlink:href="#3" y="8.684"/><use xlink:href="#4" y="10.855"/><use xlink:href="#5" y="15.197"/><use xlink:href="#6" y="19.539"/><use xlink:href="#7" y="21.71"/><use xlink:href="#9" y="23.881"/><use xlink:href="#10" y="26.052"/><use xlink:href="#11" y="30.394"/><use xlink:href="#12" y="32.565"/><use xlink:href="#8" y="34.736"/></svg><svg x="1040"><use xlink:href="#a"/><use xlink:href="#b" x="-.004" y="36.882"/><use xlink:href="#1" y="2.171"/><use xlink:href="#2" y="4.342"/><use xlink:href="#3" y="8.684"/><use xlink:href="#4" y="10.855"/><use xlink:href="#5" y="15.197"/><use xlink:href="#6" y="19.539"/><use xlink:href="#7" y="21.71"/><use xlink:href="#9" y="23.881"/><use xlink:href="#10" y="26.052"/><use xlink:href="#11" y="30.394"/><use xlink:href="#12" y="32.565"/><use xlink:href="#13" y="34.736"/></svg><svg x="1120"><use xlink:href="#a"/><use xlink:href="#b" x="-.004" y="39.053"/><use xlink:href="#1" y="2.171"/><use xlink:href="#2" y="4.342"/><use xlink:href="#3" y="8.684"/><use xlink:href="#4" y="10.855"/><use xlink:href="#5" y="15.197"/><use xlink:href="#6" y="19.539"/><use xlink:href="#7" y="21.71"/><use xlink:href="#9" y="23.881"/><use xlink:href="#10" y="26.052"/><use xlink:href="#11" y="30.394"/><use xlink:href="#12" y="32.565"/><use xlink:href="#13" y="34.736"/><use xlink:href="#14" y="36.907"/></svg><svg x="1200"><use xlink:href="#a"/><use xlink:href="#b" x="-.004" y="41.224"/><use xlink:href="#1" y="2.171"/><use xlink:href="#2" y="4.342"/><use xlink:href="#3" y="8.684"/><use xlink:href="#4" y="10.855"/><use xlink:href="#5" y="15.197"/><use xlink:href="#6" y="19.539"/><use xlink:href="#7" y="21.71"/><use xlink:href="#9" y="23.881"/><use xlink:href="#10" y="26.052"/><use xlink:href="#11" y="30.394"/><use xlink:href="#12" y="32.565"/><use xlink:href="#13" y="34.736"/><use xlink:href="#14" y="36.907"/><use xlink:href="#15" y="39.078"/></svg><svg x="1280"><use xlink:href="#a"/><use xlink:href="#b" x="-.004" y="43.395"/><use xlink:href="#1" y="2.171"/><use xlink:href="#2" y="4.342"/><use xlink:href="#3" y="8.684"/><use xlink:href="#4" y="10.855"/><use xlink:href="#5" y="15.197"/><use xlink:href="#6" y="19.539"/><use xlink:href="#7" y="21.71"/><use xlink:href="#9" y="23.881"/><use xlink:href="#10" y="26.052"/><use xlink:href="#11" y="30.394"/><use xlink:href="#12" y="32.565"/><use xlink:href="#13" y="34.736"/><use xlink:href="#14" y="36.907"/><use xlink:href="#15" y="39.078"/><use xlink:href="#16" y="41.249"/></svg><svg x="1360"><use xlink:href="#a"/><use xlink:href="#b" x="-.004" y="45.566"/><use xlink:href="#1" y="2.171"/><use xlink:href="#2" y="4.342"/><use xlink:href="#3" y="8.684"/><use xlink:href="#4" y="10.855"/><use xlink:href="#5" y="15.197"/><use xlink:href="#6" y="19.539"/><use xlink:href="#7" y="21.71"/><use xlink:href="#9" y="23.881"/><use xlink:href="#10" y="26.052"/><use xlink:href="#11" y="30.394"/><use xlink:href="#12" y="32.565"/><use xlink:href="#13" y="34.736"/><use xlink:href="#14" y="36.907"/><use xlink:href="#15" y="39.078"/><use xlink:href="#16" y="41.249"/></svg><svg x="1440"><use xlink:href="#a"/><use xlink:href="#b" x="-.004" y="49.908"/><use xlink:href="#1" y="2.171"/><use xlink:href="#2" y="4.342"/><use xlink:href="#3" y="8.684"/><use xlink:href="#4" y="10.855"/><use xlink:href="#5" y="15.197"/><use xlink:href="#6" y="19.539"/><use xlink:href="#7" y="21.71"/><use xlink:href="#9" y="23.881"/><use xlink:href="#10" y="26.052"/><use xlink:href="#11" y="30.394"/><use xlink:href="#12" y="32.565"/><use xlink:href="#13" y="34.736"/><use xlink:href="#14" y="36.907"/><use xlink:href="#15" y="39.078"/><use xlink:href="#16" y="41.249"/><use xlink:href="#17" y="45.591"/><use xlink:href="#18" y="47.762"/></svg><svg x="1520"><use xlink:href="#a"/><use xlink:href="#b" x="22.996" y="49.908"/><use xlink:href="#1" y="2.171"/><use xlink:href="#2" y="4.342"/><use xlink:href="#3" y="8.684"/><use xlink:href="#4" y="10.855"/><use xlink:href="#5" y="15.197"/><use xlink:href="#6" y="19.539"/><use xlink:href="#7" y="21.71"/><use xlink:href="#9" y="23.881"/><use xlink:href="#10" y="26.052"/><use xlink:href="#11" y="30.394"/><use xlink:href="#12" y="32.565"/><use xlink:href="#13" y="34.736"/><use xlink:href="#14" y="36.907"/><use xlink:href="#15" y="39.078"/><use xlink:href="#16" y="41.249"/><use xlink:href="#17" y="45.591"/><use xlink:href="#18" y="47.762"/><use xlink:href="#8" y="49.933"/></svg><svg x="1600"><use xlink:href="#a"/><use xlink:href="#b" x="-.004" y="52.079"/><use xlink:href="#1" y="2.171"/><use xlink:href="#2" y="4.342"/><use xlink:href="#3" y="8.684"/><use xlink:href="#4" y="10.855"/><use xlink:href="#5" y="15.197"/><use xlink:href="#6" y="19.539"/><use xlink:href="#7" y="21.71"/><use xlink:href="#9" y="23.881"/><use xlink:href="#10" y="26.052"/><use xlink:href="#11" y="30.394"/><use xlink:href="#12" y="32.565"/><use xlink:href="#13" y="34.736"/><use xlink:href="#14" y="36.907"/><use xlink:href="#15" y="39.078"/><use xlink:href="#16" y="41.249"/><use xlink:href="#17" y="45.591"/><use xlink:href="#18" y="47.762"/><use xlink:href="#19" y="49.933"/></svg><svg x="1680"><use xlink:href="#a"/><use xlink:href="#b" x="-.004" y="58.592"/><use xlink:href="#1" y="2.171"/><use xlink:href="#2" y="4.342"/><use xlink:href="#3" y="8.684"/><use xlink:href="#4" y="10.855"/><use xlink:href="#5" y="15.197"/><use xlink:href="#6" y="19.539"/><use xlink:href="#7" y="21.71"/><use xlink:href="#9" y="23.881"/><use xlink:href="#10" y="26.052"/><use xlink:href="#11" y="30.394"/><use xlink:href="#12" y="32.565"/><use xlink:href="#13" y="34.736"/><use xlink:href="#14" y="36.907"/><use xlink:href="#15" y="39.078"/><use xlink:href="#16" y="41.249"/><use xlink:href="#17" y="45.591"/><use xlink:href="#18" y="47.762"/><use xlink:href="#19" y="49.933"/><use xlink:href="#20" y="52.104"/><use xlink:href="#21" y="54.275"/><use xlink:href="#22" y="56.446"/></svg><svg x="1760"><use xlink:href="#a"/><use xlink:href="#b" x="22.996" y="65.105"/><use xlink:href="#1" y="2.171"/><use xlink:href="#2" y="4.342"/><use xlink:href="#3" y="8.684"/><use xlink:href="#4" y="10.855"/><use xlink:href="#5" y="15.197"/><use xlink:href="#6" y="19.539"/><use xlink:href="#7" y="21.71"/><use xlink:href="#9" y="23.881"/><use xlink:href="#10" y="26.052"/><use xlink:href="#11" y="30.394"/><use xlink:href="#12" y="32.565"/><use xlink:href="#13" y="34.736"/><use xlink:href="#14" y="36.907"/><use xlink:href="#15" y="39.078"/><use xlink:href="#16" y="41.249"/><use xlink:href="#17" y="45.591"/><use xlink:href="#18" y="47.762"/><use xlink:href="#19" y="49.933"/><use xlink:href="#20" y="52.104"/><use xlink:href="#21" y="54.275"/><use xlink:href="#22" y="56.446"/><use xlink:href="#23" y="60.788"/><use xlink:href="#24" y="62.959"/><use xlink:href="#8" y="65.13"/></svg><svg x="1840"><use xlink:href="#a"/><use xlink:href="#b" x="-.004" y="67.276"/><use xlink:href="#1" y="2.171"/><use xlink:href="#2" y="4.342"/><use xlink:href="#3" y="8.684"/><use xlink:href="#4" y="10.855"/><use xlink:href="#5" y="15.197"/><use xlink:href="#6" y="19.539"/><use xlink:href="#7" y="21.71"/><use xlink:href="#9" y="23.881"/><use xlink:href="#10" y="26.052"/><use xlink:href="#11" y="30.394"/><use xlink:href="#12" y="32.565"/><use xlink:href="#13" y="34.736"/><use xlink:href="#14" y="36.907"/><use xlink:href="#15" y="39.078"/><use xlink:href="#16" y="41.249"/><use xlink:href="#17" y="45.591"/><use xlink:href="#18" y="47.762"/><use xlink:href="#19" y="49.933"/><use xlink:href="#20" y="52.104"/><use xlink:href="#21" y="54.275"/><use xlink:href="#22" y="56.446"/><use xlink:href="#23" y="60.788"/><use xlink:href="#24" y="62.959"/><use xlink:href="#9" y="65.13"/></svg><svg x="1920"><use xlink:href="#a"/><use xlink:href="#b" x="-.004" y="69.447"/><use xlink:href="#1" y="2.171"/><use xlink:href="#2" y="4.342"/><use xlink:href="#3" y="8.684"/><use xlink:href="#4" y="10.855"/><use xlink:href="#5" y="15.197"/><use xlink:href="#6" y="19.539"/><use xlink:href="#7" y="21.71"/><use xlink:href="#9" y="23.881"/><use xlink:href="#10" y="26.052"/><use xlink:href="#11" y="30.394"/><use xlink:href="#12" y="32.565"/><use xlink:href="#13" y="34.736"/><use xlink:href="#14" y="36.907"/><use xlink:href="#15" y="39.078"/><use xlink:href="#16" y="41.249"/><use xlink:href="#17" y="45.591"/><use xlink:href="#18" y="47.762"/><use xlink:href="#19" y="49.933"/><use xlink:href="#20" y="52.104"/><use xlink:href="#21" y="54.275"/><use xlink:href="#22" y="56.446"/><use xlink:href="#23" y="60.788"/><use xlink:href="#24" y="62.959"/><use xlink:href="#9" y="65.13"/><use xlink:href="#25" y="67.301"/></svg><svg x="2000"><use xlink:href="#a"/><use xlink:href="#b" x="-.004" y="71.618"/><use xlink:href="#1" y="2.171"/><use xlink:href="#2" y="4.342"/><use xlink:href="#3" y="8.684"/><use xlink:href="#4" y="10.855"/><use xlink:href="#5" y="15.197"/><use xlink:href="#6" y="19.539"/><use xlink:href="#7" y="21.71"/><use xlink:href="#9" y="23.881"/><use xlink:href="#10" y="26.052"/><use xlink:href="#11" y="30.394"/><use xlink:href="#12" y="32.565"/><use xlink:href="#13" y="34.736"/><use xlink:href="#14" y="36.907"/><use xlink:href="#15" y="39.078"/><use xlink:href="#16" y="41.249"/><use xlink:href="#17" y="45.591"/><use xlink:href="#18" y="47.762"/><use xlink:href="#19" y="49.933"/><use xlink:href="#20" y="52.104"/><use xlink:href="#21" y="54.275"/><use xlink:href="#22" y="56.446"/><use xlink:href="#23" y="60.788"/><use xlink:href="#24" y="62.959"/><use xlink:href="#9" y="65.13"/><use xlink:href="#25" y="67.301"/><use xlink:href="#26" y="69.472"/></svg><svg x="2080"><use xlink:href="#a"/><use xlink:href="#b" x="-.004" y="73.789"/><use xlink:href="#1" y="2.171"/><use xlink:href="#2" y="4.342"/><use xlink:href="#3" y="8.684"/><use xlink:href="#4" y="10.855"/><use xlink:href="#5" y="15.197"/><use xlink:href="#6" y="19.539"/><use xlink:href="#7" y="21.71"/><use xlink:href="#9" y="23.881"/><use xlink:href="#10" y="26.052"/><use xlink:href="#11" y="30.394"/><use xlink:href="#12" y="32.565"/><use xlink:href="#13" y="34.736"/><use xlink:href="#14" y="36.907"/><use xlink:href="#15" y="39.078"/><use xlink:href="#16" y="41.249"/><use xlink:href="#17" y="45.591"/><use xlink:href="#18" y="47.762"/><use xlink:href="#19" y="49.933"/><use xlink:href="#20" y="52.104"/><use xlink:href="#21" y="54.275"/><use xlink:href="#22" y="56.446"/><use xlink:href="#23" y="60.788"/><use xlink:href="#24" y="62.959"/><use xlink:href="#9" y="65.13"/><use xlink:href="#25" y="67.301"/><use xlink:href="#26" y="69.472"/></svg><svg x="2160"><use xlink:href="#a"/><use xlink:href="#b" x="-.004" y="75.96"/><use xlink:href="#1" y="2.171"/><use xlink:href="#2" y="4.342"/><use xlink:href="#3" y="8.684"/><use xlink:href="#4" y="10.855"/><use xlink:href="#5" y="15.197"/><use xlink:href="#6" y="19.539"/><use xlink:href="#7" y="21.71"/><use xlink:href="#9" y="23.881"/><use xlink:href="#10" y="26.052"/><use xlink:href="#11" y="30.394"/><use xlink:href="#12" y="32.565"/><use xlink:href="#13" y="34.736"/><use xlink:href="#14" y="36.907"/><use xlink:href="#15" y="39.078"/><use xlink:href="#16" y="41.249"/><use xlink:href="#17" y="45.591"/><use xlink:href="#18" y="47.762"/><use xlink:href="#19" y="49.933"/><use xlink:href="#20" y="52.104"/><use xlink:href="#21" y="54.275"/><use xlink:href="#22" y="56.446"/><use xlink:href="#23" y="60.788"/><use xlink:href="#24" y="62.959"/><use xlink:href="#9" y="65.13"/><use xlink:href="#25" y="67.301"/><use xlink:href="#26" y="69.472"/><use xlink:href="#27" y="73.814"/></svg><svg x="2240"><use xlink:href="#a"/><use xlink:href="#b" x="-.004" y="80.302"/><use xlink:href="#1" y="2.171"/><use xlink:href="#2" y="4.342"/><use xlink:href="#3" y="8.684"/><use xlink:href="#4" y="10.855"/><use xlink:href="#5" y="15.197"/><use xlink:href="#6" y="19.539"/><use xlink:href="#7" y="21.71"/><use xlink:href="#9" y="23.881"/><use xlink:href="#10" y="26.052"/><use xlink:href="#11" y="30.394"/><use xlink:href="#12" y="32.565"/><use xlink:href="#13" y="34.736"/><use xlink:href="#14" y="36.907"/><use xlink:href="#15" y="39.078"/><use xlink:href="#16" y="41.249"/><use xlink:href="#17" y="45.591"/><use xlink:href="#18" y="47.762"/><use xlink:href="#19" y="49.933"/><use xlink:href="#20" y="52.104"/><use xlink:href="#21" y="54.275"/><use xlink:href="#22" y="56.446"/><use xlink:href="#23" y="60.788"/><use xlink:href="#24" y="62.959"/><use xlink:href="#9" y="65.13"/><use xlink:href="#25" y="67.301"/><use xlink:href="#26" y="69.472"/><use xlink:href="#27" y="73.814"/><use xlink:href="#28" y="75.985"/></svg><svg x="2320"><use xlink:href="#a"/><use xlink:href="#b" x="38.996" y="80.302"/><use xlink:href="#1" y="2.171"/><use xlink:href="#2" y="4.342"/><use xlink:href="#3" y="8.684"/><use xlink:href="#4" y="10.855"/><use xlink:href="#5" y="15.197"/><use xlink:href="#6" y="19.539"/><use xlink:href="#7" y="21.71"/><use xlink:href="#9" y="23.881"/><use xlink:href="#10" y="26.052"/><use xlink:href="#11" y="30.394"/><use xlink:href="#12" y="32.565"/><use xlink:href="#13" y="34.736"/><use xlink:href="#14" y="36.907"/><use xlink:href="#15" y="39.078"/><use xlink:href="#16" y="41.249"/><use xlink:href="#17" y="45.591"/><use xlink:href="#18" y="47.762"/><use xlink:href="#19" y="49.933"/><use xlink:href="#20" y="52.104"/><use xlink:href="#21" y="54.275"/><use xlink:href="#22" y="56.446"/><use xlink:href="#23" y="60.788"/><use xlink:href="#24" y="62.959"/><use xlink:href="#9" y="65.13"/><use xlink:href="#25" y="67.301"/><use xlink:href="#26" y="69.472"/><use xlink:href="#27" y="73.814"/><use xlink:href="#28" y="75.985"/><text x="8.016" y="81.997" class="g">#1:</text><text x="12.024" y="81.997" class="g">$5.00</text><text x="18.036" y="81.997" class="g">→</text><text x="20.04" y="81.997" class="g">api.cohere.com</text><text x="35.07" y="81.997" class="g">...</text></svg><svg x="2400"><use xlink:href="#a"/><use xlink:href="#b" x="-.004" y="82.473"/><use xlink:href="#1" y="2.171"/><use xlink:href="#2" y="4.342"/><use xlink:href="#3" y="8.684"/><use xlink:href="#4" y="10.855"/><use xlink:href="#5" y="15.197"/><use xlink:href="#6" y="19.539"/><use xlink:href="#7" y="21.71"/><use xlink:href="#9" y="23.881"/><use xlink:href="#10" y="26.052"/><use xlink:href="#11" y="30.394"/><use xlink:href="#12" y="32.565"/><use xlink:href="#13" y="34.736"/><use xlink:href="#14" y="36.907"/><use xlink:href="#15" y="39.078"/><use xlink:href="#16" y="41.249"/><use xlink:href="#17" y="45.591"/><use xlink:href="#18" y="47.762"/><use xlink:href="#19" y="49.933"/><use xlink:href="#20" y="52.104"/><use xlink:href="#21" y="54.275"/><use xlink:href="#22" y="56.446"/><use xlink:href="#23" y="60.788"/><use xlink:href="#24" y="62.959"/><use xlink:href="#9" y="65.13"/><use xlink:href="#25" y="67.301"/><use xlink:href="#26" y="69.472"/><use xlink:href="#27" y="73.814"/><use xlink:href="#28" y="75.985"/><use xlink:href="#29" y="80.327"/></svg><svg x="2480"><use xlink:href="#a"/><use xlink:href="#b" x="38.996" y="82.473"/><use xlink:href="#1" y="2.171"/><use xlink:href="#2" y="4.342"/><use xlink:href="#3" y="8.684"/><use xlink:href="#4" y="10.855"/><use xlink:href="#5" y="15.197"/><use xlink:href="#6" y="19.539"/><use xlink:href="#7" y="21.71"/><use xlink:href="#9" y="23.881"/><use xlink:href="#10" y="26.052"/><use xlink:href="#11" y="30.394"/><use xlink:href="#12" y="32.565"/><use xlink:href="#13" y="34.736"/><use xlink:href="#14" y="36.907"/><use xlink:href="#15" y="39.078"/><use xlink:href="#16" y="41.249"/><use xlink:href="#17" y="45.591"/><use xlink:href="#18" y="47.762"/><use xlink:href="#19" y="49.933"/><use xlink:href="#20" y="52.104"/><use xlink:href="#21" y="54.275"/><use xlink:href="#22" y="56.446"/><use xlink:href="#23" y="60.788"/><use xlink:href="#24" y="62.959"/><use xlink:href="#9" y="65.13"/><use xlink:href="#25" y="67.301"/><use xlink:href="#26" y="69.472"/><use xlink:href="#27" y="73.814"/><use xlink:href="#28" y="75.985"/><use xlink:href="#29" y="80.327"/><text x="8.016" y="84.168" class="g">#2:</text><text x="12.024" y="84.168" class="g">$5.00</text><text x="18.036" y="84.168" class="g">→</text><text x="20.04" y="84.168" class="g">api.cohere.com</text><text x="35.07" y="84.168" class="g">...</text></svg><svg x="2560"><use xlink:href="#a"/><use xlink:href="#b" x="-.004" y="84.644"/><use xlink:href="#1" y="2.171"/><use xlink:href="#2" y="4.342"/><use xlink:href="#3" y="8.684"/><use xlink:href="#4" y="10.855"/><use xlink:href="#5" y="15.197"/><use xlink:href="#6" y="19.539"/><use xlink:href="#7" y="21.71"/><use xlink:href="#9" y="23.881"/><use xlink:href="#10" y="26.052"/><use xlink:href="#11" y="30.394"/><use xlink:href="#12" y="32.565"/><use xlink:href="#13" y="34.736"/><use xlink:href="#14" y="36.907"/><use xlink:href="#15" y="39.078"/><use xlink:href="#16" y="41.249"/><use xlink:href="#17" y="45.591"/><use xlink:href="#18" y="47.762"/><use xlink:href="#19" y="49.933"/><use xlink:href="#20" y="52.104"/><use xlink:href="#21" y="54.275"/><use xlink:href="#22" y="56.446"/><use xlink:href="#23" y="60.788"/><use xlink:href="#24" y="62.959"/><use xlink:href="#9" y="65.13"/><use xlink:href="#25" y="67.301"/><use xlink:href="#26" y="69.472"/><use xlink:href="#27" y="73.814"/><use xlink:href="#28" y="75.985"/><use xlink:href="#29" y="80.327"/><use xlink:href="#30" y="82.498"/></svg><svg x="2640"><use xlink:href="#a"/><use xlink:href="#b" x="38.996" y="84.644"/><use xlink:href="#1" y="2.171"/><use xlink:href="#2" y="4.342"/><use xlink:href="#3" y="8.684"/><use xlink:href="#4" y="10.855"/><use xlink:href="#5" y="15.197"/><use xlink:href="#6" y="19.539"/><use xlink:href="#7" y="21.71"/><use xlink:href="#9" y="23.881"/><use xlink:href="#10" y="26.052"/><use xlink:href="#11" y="30.394"/><use xlink:href="#12" y="32.565"/><use xlink:href="#13" y="34.736"/><use xlink:href="#14" y="36.907"/><use xlink:href="#15" y="39.078"/><use xlink:href="#16" y="41.249"/><use xlink:href="#17" y="45.591"/><use xlink:href="#18" y="47.762"/><use xlink:href="#19" y="49.933"/><use xlink:href="#20" y="52.104"/><use xlink:href="#21" y="54.275"/><use xlink:href="#22" y="56.446"/><use xlink:href="#23" y="60.788"/><use xlink:href="#24" y="62.959"/><use xlink:href="#9" y="65.13"/><use xlink:href="#25" y="67.301"/><use xlink:href="#26" y="69.472"/><use xlink:href="#27" y="73.814"/><use xlink:href="#28" y="75.985"/><use xlink:href="#29" y="80.327"/><use xlink:href="#30" y="82.498"/><text x="8.016" y="86.339" class="g">#3:</text><text x="12.024" y="86.339" class="g">$5.00</text><text x="18.036" y="86.339" class="g">→</text><text x="20.04" y="86.339" class="g">api.cohere.com</text><text x="35.07" y="86.339" class="g">...</text></svg><svg x="2720"><use xlink:href="#a"/><use xlink:href="#b" x="-.004" y="86.815"/><use xlink:href="#1" y="2.171"/><use xlink:href="#2" y="4.342"/><use xlink:href="#3" y="8.684"/><use xlink:href="#4" y="10.855"/><use xlink:href="#5" y="15.197"/><use xlink:href="#6" y="19.539"/><use xlink:href="#7" y="21.71"/><use xlink:href="#9" y="23.881"/><use xlink:href="#10" y="26.052"/><use xlink:href="#11" y="30.394"/><use xlink:href="#12" y="32.565"/><use xlink:href="#13" y="34.736"/><use xlink:href="#14" y="36.907"/><use xlink:href="#15" y="39.078"/><use xlink:href="#16" y="41.249"/><use xlink:href="#17" y="45.591"/><use xlink:href="#18" y="47.762"/><use xlink:href="#19" y="49.933"/><use xlink:href="#20" y="52.104"/><use xlink:href="#21" y="54.275"/><use xlink:href="#22" y="56.446"/><use xlink:href="#23" y="60.788"/><use xlink:href="#24" y="62.959"/><use xlink:href="#9" y="65.13"/><use xlink:href="#25" y="67.301"/><use xlink:href="#26" y="69.472"/><use xlink:href="#27" y="73.814"/><use xlink:href="#28" y="75.985"/><use xlink:href="#29" y="80.327"/><use xlink:href="#30" y="82.498"/><use xlink:href="#31" y="84.669"/></svg><svg x="2800"><use xlink:href="#a"/><use xlink:href="#b" x="-.004" y="86.815"/><use xlink:href="#1"/><use xlink:href="#2" y="2.171"/><use xlink:href="#3" y="6.513"/><use xlink:href="#4" y="8.684"/><use xlink:href="#5" y="13.026"/><use xlink:href="#6" y="17.368"/><use xlink:href="#7" y="19.539"/><use xlink:href="#9" y="21.71"/><use xlink:href="#10" y="23.881"/><use xlink:href="#11" y="28.223"/><use xlink:href="#12" y="30.394"/><use xlink:href="#13" y="32.565"/><use xlink:href="#14" y="34.736"/><use xlink:href="#15" y="36.907"/><use xlink:href="#16" y="39.078"/><use xlink:href="#17" y="43.42"/><use xlink:href="#18" y="45.591"/><use xlink:href="#19" y="47.762"/><use xlink:href="#20" y="49.933"/><use xlink:href="#21" y="52.104"/><use xlink:href="#22" y="54.275"/><use xlink:href="#23" y="58.617"/><use xlink:href="#24" y="60.788"/><use xlink:href="#9" y="62.959"/><use xlink:href="#25" y="65.13"/><use xlink:href="#26" y="67.301"/><use xlink:href="#27" y="71.643"/><use xlink:href="#28" y="73.814"/><use xlink:href="#29" y="78.156"/><use xlink:href="#30" y="80.327"/><use xlink:href="#31" y="82.498"/></svg><svg x="2880"><use xlink:href="#a"/><use xlink:href="#b" x="-.004" y="86.815"/><use xlink:href="#3"/><use xlink:href="#4" y="2.171"/><use xlink:href="#5" y="6.513"/><use xlink:href="#6" y="10.855"/><use xlink:href="#7" y="13.026"/><use xlink:href="#9" y="15.197"/><use xlink:href="#10" y="17.368"/><use xlink:href="#11" y="21.71"/><use xlink:href="#12" y="23.881"/><use xlink:href="#13" y="26.052"/><use xlink:href="#14" y="28.223"/><use xlink:href="#15" y="30.394"/><use xlink:href="#16" y="32.565"/><use xlink:href="#17" y="36.907"/><use xlink:href="#18" y="39.078"/><use xlink:href="#19" y="41.249"/><use xlink:href="#20" y="43.42"/><use xlink:href="#21" y="45.591"/><use xlink:href="#22" y="47.762"/><use xlink:href="#23" y="52.104"/><use xlink:href="#24" y="54.275"/><use xlink:href="#9" y="56.446"/><use xlink:href="#25" y="58.617"/><use xlink:href="#26" y="60.788"/><use xlink:href="#27" y="65.13"/><use xlink:href="#28" y="67.301"/><use xlink:href="#29" y="71.643"/><use xlink:href="#30" y="73.814"/><use xlink:href="#31" y="75.985"/><use xlink:href="#2" y="80.327"/><use xlink:href="#32" y="82.498"/><use xlink:href="#33" y="84.669"/></svg><svg x="2960"><use xlink:href="#a"/><use xlink:href="#b" x="-.004" y="86.815"/><use xlink:href="#4"/><use xlink:href="#5" y="4.342"/><use xlink:href="#6" y="8.684"/><use xlink:href="#7" y="10.855"/><use xlink:href="#9" y="13.026"/><use xlink:href="#10" y="15.197"/><use xlink:href="#11" y="19.539"/><use xlink:href="#12" y="21.71"/><use xlink:href="#13" y="23.881"/><use xlink:href="#14" y="26.052"/><use xlink:href="#15" y="28.223"/><use xlink:href="#16" y="30.394"/><use xlink:href="#17" y="34.736"/><use xlink:href="#18" y="36.907"/><use xlink:href="#19" y="39.078"/><use xlink:href="#20" y="41.249"/><use xlink:href="#21" y="43.42"/><use xlink:href="#22" y="45.591"/><use xlink:href="#23" y="49.933"/><use xlink:href="#24" y="52.104"/><use xlink:href="#9" y="54.275"/><use xlink:href="#25" y="56.446"/><use xlink:href="#26" y="58.617"/><use xlink:href="#27" y="62.959"/><use xlink:href="#28" y="65.13"/><use xlink:href="#29" y="69.472"/><use xlink:href="#30" y="71.643"/><use xlink:href="#31" y="73.814"/><use xlink:href="#2" y="78.156"/><use xlink:href="#32" y="80.327"/><use xlink:href="#33" y="82.498"/><use xlink:href="#34" y="84.669"/></svg><svg x="3040"><use xlink:href="#a"/><use xlink:href="#b" x="-.004" y="86.815"/><use xlink:href="#5" y="2.171"/><use xlink:href="#6" y="6.513"/><use xlink:href="#7" y="8.684"/><use xlink:href="#9" y="10.855"/><use xlink:href="#10" y="13.026"/><use xlink:href="#11" y="17.368"/><use xlink:href="#12" y="19.539"/><use xlink:href="#13" y="21.71"/><use xlink:href="#14" y="23.881"/><use xlink:href="#15" y="26.052"/><use xlink:href="#16" y="28.223"/><use xlink:href="#17" y="32.565"/><use xlink:href="#18" y="34.736"/><use xlink:href="#19" y="36.907"/><use xlink:href="#20" y="39.078"/><use xlink:href="#21" y="41.249"/><use xlink:href="#22" y="43.42"/><use xlink:href="#23" y="47.762"/><use xlink:href="#24" y="49.933"/><use xlink:href="#9" y="52.104"/><use xlink:href="#25" y="54.275"/><use xlink:href="#26" y="56.446"/><use xlink:href="#27" y="60.788"/><use xlink:href="#28" y="62.959"/><use xlink:href="#29" y="67.301"/><use xlink:href="#30" y="69.472"/><use xlink:href="#31" y="71.643"/><use xlink:href="#2" y="75.985"/><use xlink:href="#32" y="78.156"/><use xlink:href="#33" y="80.327"/><use xlink:href="#34" y="82.498"/><use xlink:href="#35" y="84.669"/></svg><svg x="3120"><use xlink:href="#a"/><use xlink:href="#b" x="-.004" y="86.815"/><use xlink:href="#6" y="2.171"/><use xlink:href="#7" y="4.342"/><use xlink:href="#9" y="6.513"/><use xlink:href="#10" y="8.684"/><use xlink:href="#11" y="13.026"/><use xlink:href="#12" y="15.197"/><use xlink:href="#13" y="17.368"/><use xlink:href="#14" y="19.539"/><use xlink:href="#15" y="21.71"/><use xlink:href="#16" y="23.881"/><use xlink:href="#17" y="28.223"/><use xlink:href="#18" y="30.394"/><use xlink:href="#19" y="32.565"/><use xlink:href="#20" y="34.736"/><use xlink:href="#21" y="36.907"/><use xlink:href="#22" y="39.078"/><use xlink:href="#23" y="43.42"/><use xlink:href="#24" y="45.591"/><use xlink:href="#9" y="47.762"/><use xlink:href="#25" y="49.933"/><use xlink:href="#26" y="52.104"/><use xlink:href="#27" y="56.446"/><use xlink:href="#28" y="58.617"/><use xlink:href="#29" y="62.959"/><use xlink:href="#30" y="65.13"/><use xlink:href="#31" y="67.301"/><use xlink:href="#2" y="71.643"/><use xlink:href="#32" y="73.814"/><use xlink:href="#33" y="75.985"/><use xlink:href="#34" y="78.156"/><use xlink:href="#35" y="80.327"/><use xlink:href="#36" y="82.498"/></svg><svg x="3200"><use xlink:href="#a"/><use xlink:href="#b" x="-.004" y="86.815"/><use xlink:href="#6"/><use xlink:href="#7" y="2.171"/><use xlink:href="#9" y="4.342"/><use xlink:href="#10" y="6.513"/><use xlink:href="#11" y="10.855"/><use xlink:href="#12" y="13.026"/><use xlink:href="#13" y="15.197"/><use xlink:href="#14" y="17.368"/><use xlink:href="#15" y="19.539"/><use xlink:href="#16" y="21.71"/><use xlink:href="#17" y="26.052"/><use xlink:href="#18" y="28.223"/><use xlink:href="#19" y="30.394"/><use xlink:href="#20" y="32.565"/><use xlink:href="#21" y="34.736"/><use xlink:href="#22" y="36.907"/><use xlink:href="#23" y="41.249"/><use xlink:href="#24" y="43.42"/><use xlink:href="#9" y="45.591"/><use xlink:href="#25" y="47.762"/><use xlink:href="#26" y="49.933"/><use xlink:href="#27" y="54.275"/><use xlink:href="#28" y="56.446"/><use xlink:href="#29" y="60.788"/><use xlink:href="#30" y="62.959"/><use xlink:href="#31" y="65.13"/><use xlink:href="#2" y="69.472"/><use xlink:href="#32" y="71.643"/><use xlink:href="#33" y="73.814"/><use xlink:href="#34" y="75.985"/><use xlink:href="#35" y="78.156"/><use xlink:href="#36" y="80.327"/><use xlink:href="#37" y="84.669"/></svg><svg x="3280"><use xlink:href="#a"/><use xlink:href="#b" x="-.004" y="86.815"/><use xlink:href="#9"/><use xlink:href="#10" y="2.171"/><use xlink:href="#11" y="6.513"/><use xlink:href="#12" y="8.684"/><use xlink:href="#13" y="10.855"/><use xlink:href="#14" y="13.026"/><use xlink:href="#15" y="15.197"/><use xlink:href="#16" y="17.368"/><use xlink:href="#17" y="21.71"/><use xlink:href="#18" y="23.881"/><use xlink:href="#19" y="26.052"/><use xlink:href="#20" y="28.223"/><use xlink:href="#21" y="30.394"/><use xlink:href="#22" y="32.565"/><use xlink:href="#23" y="36.907"/><use xlink:href="#24" y="39.078"/><use xlink:href="#9" y="41.249"/><use xlink:href="#25" y="43.42"/><use xlink:href="#26" y="45.591"/><use xlink:href="#27" y="49.933"/><use xlink:href="#28" y="52.104"/><use xlink:href="#29" y="56.446"/><use xlink:href="#30" y="58.617"/><use xlink:href="#31" y="60.788"/><use xlink:href="#2" y="65.13"/><use xlink:href="#32" y="67.301"/><use xlink:href="#33" y="69.472"/><use xlink:href="#34" y="71.643"/><use xlink:href="#35" y="73.814"/><use xlink:href="#36" y="75.985"/><use xlink:href="#37" y="80.327"/><use xlink:href="#38" y="82.498"/></svg><svg x="3360"><use xlink:href="#a"/><use xlink:href="#b" x="-.004" y="86.815"/><use xlink:href="#11" y="2.171"/><use xlink:href="#12" y="4.342"/><use xlink:href="#13" y="6.513"/><use xlink:href="#14" y="8.684"/><use xlink:href="#15" y="10.855"/><use xlink:href="#16" y="13.026"/><use xlink:href="#17" y="17.368"/><use xlink:href="#18" y="19.539"/><use xlink:href="#19" y="21.71"/><use xlink:href="#20" y="23.881"/><use xlink:href="#21" y="26.052"/><use xlink:href="#22" y="28.223"/><use xlink:href="#23" y="32.565"/><use xlink:href="#24" y="34.736"/><use xlink:href="#9" y="36.907"/><use xlink:href="#25" y="39.078"/><use xlink:href="#26" y="41.249"/><use xlink:href="#27" y="45.591"/><use xlink:href="#28" y="47.762"/><use xlink:href="#29" y="52.104"/><use xlink:href="#30" y="54.275"/><use xlink:href="#31" y="56.446"/><use xlink:href="#2" y="60.788"/><use xlink:href="#32" y="62.959"/><use xlink:href="#33" y="65.13"/><use xlink:href="#34" y="67.301"/><use xlink:href="#35" y="69.472"/><use xlink:href="#36" y="71.643"/><use xlink:href="#37" y="75.985"/><use xlink:href="#38" y="78.156"/><use xlink:href="#5" y="82.498"/></svg><svg x="3440"><use xlink:href="#a"/><use xlink:href="#b" x="-.004" y="86.815"/><use xlink:href="#13"/><use xlink:href="#14" y="2.171"/><use xlink:href="#15" y="4.342"/><use xlink:href="#16" y="6.513"/><use xlink:href="#17" y="10.855"/><use xlink:href="#18" y="13.026"/><use xlink:href="#19" y="15.197"/><use xlink:href="#20" y="17.368"/><use xlink:href="#21" y="19.539"/><use xlink:href="#22" y="21.71"/><use xlink:href="#23" y="26.052"/><use xlink:href="#24" y="28.223"/><use xlink:href="#9" y="30.394"/><use xlink:href="#25" y="32.565"/><use xlink:href="#26" y="34.736"/><use xlink:href="#27" y="39.078"/><use xlink:href="#28" y="41.249"/><use xlink:href="#29" y="45.591"/><use xlink:href="#30" y="47.762"/><use xlink:href="#31" y="49.933"/><use xlink:href="#2" y="54.275"/><use xlink:href="#32" y="56.446"/><use xlink:href="#33" y="58.617"/><use xlink:href="#34" y="60.788"/><use xlink:href="#35" y="62.959"/><use xlink:href="#36" y="65.13"/><use xlink:href="#37" y="69.472"/><use xlink:href="#38" y="71.643"/><use xlink:href="#5" y="75.985"/><text x="2.004" y="81.997" class="h">Get</text><text x="6.012" y="81.997" class="h">started:</text><text x="15.03" y="81.997" class="g">npm</text><text x="19.038" y="81.997" class="g">install</text><text x="27.054" y="81.997" class="g">@paysentry/core</text><text x="43.086" y="81.997" class="g">@paysentry/control</text><text x="2.004" y="84.168" class="h">Docs:</text><text x="15.03" y="84.168" class="i">github.com/mkmkkkkk/paysentry</text></svg></svg></g></g></svg></svg>